# xmcd
# Copyright (C) 1995-1998 Ti Kan
#
# Track frame offsets:
#       150
#       16978
#       34544
#       51256
#       66918
#       85267
#       101745
#       118197
#       135410
#       154506
#       171014
#       191733
#       208743
#       228952
#       256845
#
# Disc length: 3783 seconds
#
# Revision: 0
# Processed by: cddbd v1.4PL0 Copyright (c) Steve Scherf et al.
# Submitted via: CD-Transfer v1.0
#
DISCID=c50ec50f
DTITLE=Kristin Ash - Fred Esuba, Allesandra Vonlanthen
DYEAR=03
DGENRE=
TTITLE0=Should I
TTITLE1=Never
TTITLE2=Solid Isle
TTITLE3=Sometimes
TTITLE4=I'll Remember
TTITLE5=Perfect Life
TTITLE6=Time Is A Healer
TTITLE7=Today
TTITLE8=Hard Love
TTITLE9=Alright
TTITLE10=Neverending Story
TTITLE11=One Look
TTITLE12=Every Day
TTITLE13=I Wanna Be
TTITLE14=Data Track
EXTD=
EXTT0=
EXTT1=
EXTT2=
EXTT3=
EXTT4=
EXTT5=
EXTT6=
EXTT7=
EXTT8=
EXTT9=
EXTT10=
EXTT11=
EXTT12=
EXTT13=
EXTT14=
PLAYORDER=
